<svg id="Layer_1" data-name="Layer 1" xmlns="http://www.w3.org/2000/svg" xmlns:xlink="http://www.w3.org/1999/xlink" viewBox="0 0 25.67 45.36"><defs><style>.cls-1{fill:url(#Orange_Yellow);}.cls-2{fill:url(#Orange_Yellow-2);}</style><linearGradient id="Orange_Yellow" x1="234.88" y1="410.97" x2="234.88" y2="368.47" gradientUnits="userSpaceOnUse"><stop offset="0" stop-color="#fff33b"/><stop offset="0.04" stop-color="#fee72e"/><stop offset="0.12" stop-color="#fed51b"/><stop offset="0.2" stop-color="#fdca10"/><stop offset="0.28" stop-color="#fdc70c"/><stop offset="0.67" stop-color="#f3903f"/><stop offset="0.89" stop-color="#ed683c"/><stop offset="1" stop-color="#e93e3a"/></linearGradient><linearGradient id="Orange_Yellow-2" x1="244.69" y1="413.83" x2="244.69" y2="388.92" xlink:href="#Orange_Yellow"/></defs><title>flame</title><path class="cls-1" d="M234.93,368.47s4.4,7.53-3.92,17.25a30.71,30.71,0,0,0-2.53,3.48c-1.29,2-3.2,5.23-3.34,6.8-0.25,2.75-.94,5.27,2.21,9.72,3.32,4.69,7.25,5.25,7.25,5.25h1.92s-0.75-8.25,4.08-13.42,4.25-12.5,4.25-12.5S245.26,376.31,234.93,368.47Z" transform="translate(-224.89 -368.47)"/><path class="cls-2" d="M246.84,388.92a17.53,17.53,0,0,1-5.17,11.75s-2.75,4-2.83,8.17,0,5,0,5,3.79-3.75,6.19-4.58,4-3.67,4-3.67a10.36,10.36,0,0,0,1.33-7.33C249.43,394.33,249.43,393.42,246.84,388.92Z" transform="translate(-224.89 -368.47)"/></svg>