<svg id="Layer_1" data-name="Layer 1" xmlns="http://www.w3.org/2000/svg" xmlns:xlink="http://www.w3.org/1999/xlink" viewBox="0 0 161.05 65.05"><defs><style>.cls-1{fill:url(#linear-gradient);}.cls-2{fill:url(#linear-gradient-2);}.cls-3{fill:url(#linear-gradient-3);}.cls-4{fill:url(#linear-gradient-4);}.cls-5{fill:url(#linear-gradient-5);}.cls-6{fill:url(#linear-gradient-6);}.cls-7{fill:url(#Orange_Yellow);}.cls-8{fill:url(#Orange_Yellow-2);}</style><linearGradient id="linear-gradient" x1="265.04" y1="360.73" x2="265.04" y2="411.67" gradientUnits="userSpaceOnUse"><stop offset="0" stop-color="#fff33b"/><stop offset="0.04" stop-color="#fee72e"/><stop offset="0.12" stop-color="#fed51b"/><stop offset="0.2" stop-color="#fdca10"/><stop offset="0.28" stop-color="#fdc70c"/><stop offset="0.67" stop-color="#f3903f"/><stop offset="0.73" stop-color="#f28b3f"/><stop offset="0.82" stop-color="#f07c3d"/><stop offset="0.89" stop-color="#ed683c"/><stop offset="1" stop-color="#e93e3a"/></linearGradient><linearGradient id="linear-gradient-2" x1="288.85" y1="375.27" x2="288.85" y2="412.13" xlink:href="#linear-gradient"/><linearGradient id="linear-gradient-3" x1="311.42" y1="359.29" x2="311.42" y2="411.67" xlink:href="#linear-gradient"/><linearGradient id="linear-gradient-4" x1="323.33" y1="359.29" x2="323.33" y2="411.67" xlink:href="#linear-gradient"/><linearGradient id="linear-gradient-5" x1="344.41" y1="424.34" x2="344.41" y2="375.85" gradientUnits="userSpaceOnUse"><stop offset="0" stop-color="#2484c6"/><stop offset="1" stop-color="#0c1329"/></linearGradient><linearGradient id="linear-gradient-6" x1="375.14" y1="412.24" x2="375.14" y2="363.28" xlink:href="#linear-gradient-5"/><linearGradient id="Orange_Yellow" x1="234.88" y1="410.97" x2="234.88" y2="368.47" gradientUnits="userSpaceOnUse"><stop offset="0" stop-color="#fff33b"/><stop offset="0.04" stop-color="#fee72e"/><stop offset="0.12" stop-color="#fed51b"/><stop offset="0.2" stop-color="#fdca10"/><stop offset="0.28" stop-color="#fdc70c"/><stop offset="0.67" stop-color="#f3903f"/><stop offset="0.89" stop-color="#ed683c"/><stop offset="1" stop-color="#e93e3a"/></linearGradient><linearGradient id="Orange_Yellow-2" x1="244.69" y1="413.83" x2="244.69" y2="388.92" xlink:href="#Orange_Yellow"/></defs><title>TellytLogo</title><path class="cls-1" d="M284.84,363.86H266.94v47.81h-3.71V363.86h-18v-3.13h39.6v3.13Z" transform="translate(-224.89 -359.29)"/><path class="cls-2" d="M277,392.33V393a24.28,24.28,0,0,0,.94,7.09,14.53,14.53,0,0,0,2.66,5.13,11,11,0,0,0,4.18,3.11,13.81,13.81,0,0,0,5.47,1,16.38,16.38,0,0,0,4.68-.59,17.46,17.46,0,0,0,3.33-1.33,18.2,18.2,0,0,0,2.14-1.33,2.43,2.43,0,0,1,1.15-.59,0.83,0.83,0,0,1,.72.36l0.94,1.15a9.78,9.78,0,0,1-2.29,2,16.28,16.28,0,0,1-3.17,1.6,23,23,0,0,1-3.74,1.06,20.59,20.59,0,0,1-4,.4,17,17,0,0,1-6.7-1.28,14.18,14.18,0,0,1-5.18-3.73,17,17,0,0,1-3.33-6,25.87,25.87,0,0,1-1.17-8.12,22.14,22.14,0,0,1,1.1-7.11,16.28,16.28,0,0,1,3.17-5.62A14.44,14.44,0,0,1,283,376.6a16.68,16.68,0,0,1,6.82-1.33,14.9,14.9,0,0,1,5.62,1,12.73,12.73,0,0,1,4.5,3,14.31,14.31,0,0,1,3,4.91,16.14,16.14,0,0,1,1.09,6.19,1.06,1.06,0,0,1-.28.84,0.84,0.84,0,0,1-.72.29Zm23.9-2.2a15.41,15.41,0,0,0-.81-5.17,11,11,0,0,0-2.29-3.87,10,10,0,0,0-3.51-2.43,11.57,11.57,0,0,0-4.48-.85,13.48,13.48,0,0,0-5,.86,10.87,10.87,0,0,0-3.8,2.48,12.41,12.41,0,0,0-2.57,3.89,18.09,18.09,0,0,0-1.3,5.08h23.72Z" transform="translate(-224.89 -359.29)"/><path class="cls-3" d="M313.15,359.29v52.38h-3.46V359.29h3.46Z" transform="translate(-224.89 -359.29)"/><path class="cls-4" d="M325.06,359.29v52.38H321.6V359.29h3.46Z" transform="translate(-224.89 -359.29)"/><path class="cls-5" d="M361.14,375.85l-20.59,47.34a2.46,2.46,0,0,1-.56.83,1.39,1.39,0,0,1-1,.32h-2.45l6.3-14-15.16-34.49h2.84a1.3,1.3,0,0,1,.86.27,1.32,1.32,0,0,1,.43.59l12.06,27.86q0.22,0.54.38,1.1t0.31,1.13q0.18-.58.38-1.13t0.41-1.1l11.92-27.86a1.55,1.55,0,0,1,.5-0.63,1.2,1.2,0,0,1,.72-0.23h2.63Z" transform="translate(-224.89 -359.29)"/><path class="cls-6" d="M378.09,412.24a7.7,7.7,0,0,1-5.67-2q-2-2-2-6.23V379.52h-5.15a1,1,0,0,1-.65-0.22,0.76,0.76,0,0,1-.25-0.61v-1.33l6.12-.43,0.86-12.82a1.3,1.3,0,0,1,.29-0.58,0.76,0.76,0,0,1,.61-0.25h1.62V377h11.3v2.56h-11.3v24.3a7.59,7.59,0,0,0,.38,2.54,4.73,4.73,0,0,0,1,1.75,4.09,4.09,0,0,0,1.57,1,5.69,5.69,0,0,0,1.94.32,6,6,0,0,0,2.23-.38,9.23,9.23,0,0,0,1.62-.83,10.42,10.42,0,0,0,1.12-.83,1.23,1.23,0,0,1,.68-0.38,0.78,0.78,0,0,1,.58.36l0.94,1.51a10,10,0,0,1-3.47,2.43A10.84,10.84,0,0,1,378.09,412.24Z" transform="translate(-224.89 -359.29)"/><path class="cls-7" d="M234.93,368.47s4.4,7.53-3.92,17.25a30.71,30.71,0,0,0-2.53,3.48c-1.29,2-3.2,5.23-3.34,6.8-0.25,2.75-.94,5.27,2.21,9.72,3.32,4.69,7.25,5.25,7.25,5.25h1.92s-0.75-8.25,4.08-13.42,4.25-12.5,4.25-12.5S245.26,376.31,234.93,368.47Z" transform="translate(-224.89 -359.29)"/><path class="cls-8" d="M246.84,388.92a17.53,17.53,0,0,1-5.17,11.75s-2.75,4-2.83,8.17,0,5,0,5,3.79-3.75,6.19-4.58,4-3.67,4-3.67a10.36,10.36,0,0,0,1.33-7.33C249.43,394.33,249.43,393.42,246.84,388.92Z" transform="translate(-224.89 -359.29)"/></svg>